# xmcd
#
# Track frame offsets:
#	150
#	8518
#	28683
#	44807
#	72168
#	91417
#	123300
#	142401
#	160747
#	188481
#	209269
#	233704
#	250403
#	272504
#
# Disc length: 3911 seconds
#
# Revision: 0
# Processed by: cddbd v1.5.1PL0 Copyright (c) Steve Scherf et al.
# Submitted via: dBpowerAMP V4.0
#
DISCID=c10f450e
DTITLE=Joice Bernardo - Proclame a Gloria
DYEAR=2003
DGENRE=Evangelico
TTITLE0=Abertura
TTITLE1=Proclame a Gloria
TTITLE2=Em Ti Me Alegrarei
TTITLE3=Eis-me Aqui Senhor
TTITLE4=Libere o Perdao
TTITLE5=Nos Bracos do Pai
TTITLE6=Cantico Espontaneo
TTITLE7=Eterna Alianca
TTITLE8=Por Me Amar
TTITLE9=Toma o Teu Lugar
TTITLE10=Nome Tao Sublime
TTITLE11=Com Vozes de Jubilo
TTITLE12=Gloria Pertence a Ti
TTITLE13=Perante a Tua Face
EXTD=
EXTT0=
EXTT1=
EXTT2=
EXTT3=
EXTT4=
EXTT5=
EXTT6=
EXTT7=
EXTT8=
EXTT9=
EXTT10=
EXTT11=
EXTT12=
EXTT13=
PLAYORDER=
